<?xml version="1.0" standalone="no"?><!DOCTYPE svg PUBLIC "-//W3C//DTD SVG 1.1//EN" "http://www.w3.org/Graphics/SVG/1.1/DTD/svg11.dtd"><svg t="1592532961893" class="icon" viewBox="0 0 1103 1024" version="1.1" xmlns="http://www.w3.org/2000/svg" p-id="925" xmlns:xlink="http://www.w3.org/1999/xlink" width="215.4296875" height="200"><defs><style type="text/css"></style></defs><path d="M87.891008 51.618529s104.632153 25.111717 104.632153 117.188011 43.247956 405.972752 43.247956 405.972752 25.111717 110.212534 117.188011 110.212534h602.681199" fill="#d81e06" p-id="926"></path><path d="M955.640327 705.918256H352.959128c-86.495913 0-126.953678-83.705722-136.719346-126.953678v-1.395096c-1.395095-12.555858-43.247956-316.686649-43.247956-408.762942 0-75.33515-87.891008-96.26158-87.891009-96.261581-13.950954-2.790191-20.926431-13.950954-18.136239-25.111716 2.790191-12.555858 13.950954-19.531335 25.111716-16.741145 41.852861 9.765668 121.373297 51.618529 121.373297 136.719346 0 87.891008 40.457766 383.651226 43.247957 403.182561 2.790191 9.765668 25.111717 93.47139 96.26158 93.47139h602.681199c11.160763 0 20.926431 9.765668 20.92643 20.926431s-9.765668 20.926431-20.92643 20.92643z" fill="#d81e06" p-id="927"></path><path d="M387.836512 565.013624c-11.160763 0-19.531335-8.370572-20.92643-19.531335-1.395095-11.160763 8.370572-20.926431 19.531335-22.321526 2.790191 0 260.882834-19.531335 389.231608-19.531335 108.817439 0 119.978202-90.681199 121.373297-93.47139v-2.790191c0-1.395095 18.13624-73.940054 36.272479-189.73297 4.185286-26.506812 0-47.433243-12.555858-59.9891-25.111717-26.506812-75.33515-20.926431-75.33515-20.926431H387.836512c-11.160763 0-20.926431-9.765668-20.92643-20.92643s9.765668-20.926431 20.92643-20.926431h454.80109c9.765668-1.395095 72.544959-4.185286 108.817439 34.877384 22.321526 23.716621 29.297003 55.803815 23.716621 96.261581-16.741144 111.607629-34.877384 181.362398-37.667575 192.52316-5.580381 46.038147-46.038147 129.743869-161.831062 129.74387-126.953678 0-383.651226 19.531335-386.441417 19.531335 0-2.790191-1.395095-2.790191-1.395096-2.790191z" fill="#d81e06" p-id="928"></path><path d="M382.256131 993.307902c-66.964578 0-121.373297-54.408719-121.373297-121.373297s54.408719-121.373297 121.373297-121.373297 121.373297 54.408719 121.373297 121.373297-54.408719 121.373297-121.373297 121.373297z m0-200.893733c-43.247956 0-79.520436 36.27248-79.520436 79.520436s36.27248 79.520436 79.520436 79.520436 79.520436-36.27248 79.520436-79.520436-36.27248-79.520436-79.520436-79.520436zM803.574932 993.307902c-66.964578 0-121.373297-54.408719-121.373297-121.373297s54.408719-121.373297 121.373297-121.373297 121.373297 54.408719 121.373297 121.373297-54.408719 121.373297-121.373297 121.373297z m0-200.893733c-43.247956 0-79.520436 36.27248-79.520436 79.520436s36.27248 79.520436 79.520436 79.520436 79.520436-36.27248 79.520436-79.520436-36.27248-79.520436-79.520436-79.520436z" fill="#d81e06" p-id="929"></path></svg>