<?xml version="1.0" standalone="no"?><!DOCTYPE svg PUBLIC "-//W3C//DTD SVG 1.1//EN" "http://www.w3.org/Graphics/SVG/1.1/DTD/svg11.dtd"><svg t="1592532562305" class="icon" viewBox="0 0 1024 1024" version="1.1" xmlns="http://www.w3.org/2000/svg" p-id="1462" xmlns:xlink="http://www.w3.org/1999/xlink" width="200" height="200"><defs><style type="text/css"></style></defs><path d="M933.034667 415.744L512 75.605333 90.965333 416.426667a20.821333 20.821333 0 0 0 26.112 32.256L512 129.024l394.922667 318.976a20.821333 20.821333 0 1 0 26.112-32.256zM836.266667 474.965333A20.650667 20.650667 0 0 0 816.298667 494.933333v353.792c0 53.248-3.242667 58.026667-37.546667 58.026667H607.061333v-204.8a89.770667 89.770667 0 0 0-96.938666-85.333333 91.989333 91.989333 0 0 0-97.450667 89.088v201.045333H240.64a37.888 37.888 0 0 1-37.546667-31.061333V494.933333a20.650667 20.650667 0 0 0-41.472 0v385.877334a79.872 79.872 0 0 0 78.677334 66.730666h538.453333c79.018667 0 79.018667-52.906667 79.018667-99.669333V494.933333A20.650667 20.650667 0 0 0 836.266667 474.965333z m-382.464 431.786667V705.194667a51.2 51.2 0 0 1 55.978666-48.810667c50.176 0 54.954667 37.546667 55.466667 45.568v204.8z" p-id="1463" fill="#d81e06"></path></svg>