<?xml version="1.0" standalone="no"?><!DOCTYPE svg PUBLIC "-//W3C//DTD SVG 1.1//EN" "http://www.w3.org/Graphics/SVG/1.1/DTD/svg11.dtd"><svg t="1592532670473" class="icon" viewBox="0 0 1024 1024" version="1.1" xmlns="http://www.w3.org/2000/svg" p-id="1874" xmlns:xlink="http://www.w3.org/1999/xlink" width="200" height="200"><defs><style type="text/css"></style></defs><path d="M590.848 468.992h249.856a53.077333 53.077333 0 0 0 52.906667-52.906667V163.669333a53.077333 53.077333 0 0 0-52.906667-52.906666H590.848a53.077333 53.077333 0 0 0-52.906667 52.906666v252.416a53.077333 53.077333 0 0 0 52.906667 52.906667z m-17.066667-307.2a14.848 14.848 0 0 1 14.848-14.848H843.093333a14.848 14.848 0 0 1 14.848 14.848v256.512a14.848 14.848 0 0 1-14.848 14.848H588.629333a14.848 14.848 0 0 1-14.848-14.848zM418.816 110.762667H168.789333a53.077333 53.077333 0 0 0-52.906666 52.906666v252.416a53.077333 53.077333 0 0 0 52.906666 52.906667h250.026667a53.077333 53.077333 0 0 0 52.906667-52.906667V163.669333a53.077333 53.077333 0 0 0-52.906667-52.906666z m17.066667 307.2a14.848 14.848 0 0 1-14.848 14.848H166.570667a14.848 14.848 0 0 1-14.848-14.848V161.450667a14.848 14.848 0 0 1 14.848-14.848h254.464a14.848 14.848 0 0 1 14.848 14.848zM418.816 531.797333H168.789333a53.077333 53.077333 0 0 0-52.906666 52.906667V836.266667a53.077333 53.077333 0 0 0 52.906666 52.906666h250.026667a53.077333 53.077333 0 0 0 52.906667-52.906666V584.704a53.077333 53.077333 0 0 0-52.906667-52.906667z m17.066667 307.2a14.848 14.848 0 0 1-14.848 14.848H166.570667a14.848 14.848 0 0 1-14.848-14.848V582.485333a14.848 14.848 0 0 1 14.848-14.848h254.464a14.848 14.848 0 0 1 14.848 14.848zM855.722667 841.386667a183.808 183.808 0 1 0-29.525334 24.746666l41.642667 41.642667a18.944 18.944 0 0 0 13.482667 5.632 19.114667 19.114667 0 0 0 13.653333-32.768zM819.2 827.904a18.090667 18.090667 0 0 0-2.389333 1.706667 144.213333 144.213333 0 1 1 2.901333-2.218667z" p-id="1875"></path></svg>